<svg xmlns="http://www.w3.org/2000/svg" viewBox="0 0 800 600" width="800" height="600">
  <defs>
    <linearGradient id="bgGH" x1="0%" y1="0%" x2="100%" y2="100%">
      <stop offset="0%" style="stop-color:#0d0a1a"/>
      <stop offset="100%" style="stop-color:#080610"/>
    </linearGradient>
    <linearGradient id="ghGreen1" x1="0%" y1="0%" x2="0%" y2="100%">
      <stop offset="0%" style="stop-color:#39d353"/>
      <stop offset="100%" style="stop-color:#26a641"/>
    </linearGradient>
    <linearGradient id="ghGreen2" x1="0%" y1="0%" x2="0%" y2="100%">
      <stop offset="0%" style="stop-color:#26a641"/>
      <stop offset="100%" style="stop-color:#006d32"/>
    </linearGradient>
    <linearGradient id="ghGreen3" x1="0%" y1="0%" x2="0%" y2="100%">
      <stop offset="0%" style="stop-color:#006d32"/>
      <stop offset="100%" style="stop-color:#003d1a"/>
    </linearGradient>
  </defs>
  <rect width="800" height="600" fill="url(#bgGH)"/>

  <!-- GitHub profile card -->
  <rect x="60" y="50" width="680" height="500" rx="12" fill="#161022" stroke="#a855f7" stroke-width="0.5" stroke-opacity="0.2"/>

  <!-- Header bar -->
  <rect x="60" y="50" width="680" height="52" rx="12" fill="#1e1530"/>
  <rect x="60" y="88" width="680" height="14" fill="#1e1530"/>
  <circle cx="88" cy="76" r="6" fill="#a855f7" fill-opacity="0.2"/>
  <circle cx="106" cy="76" r="6" fill="#a855f7" fill-opacity="0.12"/>
  <circle cx="124" cy="76" r="6" fill="#a855f7" fill-opacity="0.1"/>
  <text x="400" y="80" fill="#c8b89a" font-size="10" font-family="monospace" text-anchor="middle" opacity="0.5">github.com / peter00123</text>

  <!-- Avatar + name -->
  <circle cx="118" cy="148" r="36" fill="#2a1f40" stroke="#a855f7" stroke-width="1" stroke-opacity="0.4"/>
  <text x="118" y="156" fill="#a855f7" font-size="28" font-family="sans-serif" text-anchor="middle" opacity="0.7">B</text>
  <text x="170" y="138" fill="#f0eeff" font-size="14" font-family="sans-serif" opacity="0.9" font-weight="500">peter00123</text>
  <text x="170" y="156" fill="#c8b89a" font-size="10" font-family="sans-serif" opacity="0.5">Basil V Mathew</text>
  <text x="170" y="172" fill="#a855f7" font-size="9" font-family="sans-serif" opacity="0.6">✦ Pro</text>

  <!-- Stats row -->
  <text x="480" y="138" fill="#c8b89a" font-size="10" font-family="sans-serif" opacity="0.5">⭐ 42 stars</text>
  <text x="560" y="138" fill="#c8b89a" font-size="10" font-family="sans-serif" opacity="0.5">🍴 18 forks</text>
  <text x="640" y="138" fill="#a855f7" font-size="10" font-family="sans-serif" opacity="0.7">● 365 streak</text>

  <!-- Contribution section label -->
  <text x="80" y="215" fill="#c8b89a" font-size="11" font-family="sans-serif" opacity="0.6">1,247 contributions in the last year</text>
  <text x="700" y="215" fill="#a855f7" font-size="9" font-family="sans-serif" text-anchor="end" opacity="0.5">2024 ▾</text>

  <!-- Contribution Graph -->
  <!-- Month labels -->
  <g font-size="8" font-family="sans-serif" fill="#c8b89a" opacity="0.35">
    <text x="80"  y="232">Jan</text>
    <text x="134" y="232">Feb</text>
    <text x="186" y="232">Mar</text>
    <text x="238" y="232">Apr</text>
    <text x="290" y="232">May</text>
    <text x="342" y="232">Jun</text>
    <text x="394" y="232">Jul</text>
    <text x="448" y="232">Aug</text>
    <text x="500" y="232">Sep</text>
    <text x="554" y="232">Oct</text>
    <text x="608" y="232">Nov</text>
    <text x="662" y="232">Dec</text>
  </g>

  <!-- Grid of contribution cells (52 weeks × 7 days) -->
  <!-- Procedurally defined colors: 0=empty, 1=light, 2=med, 3=dark, 4=brightest -->
  <g>
  <!-- We'll draw the contribution grid as rows of colored rects -->
  <!-- Each cell is 11x11 with 2px gap = 13px step -->
  <!-- Start x=80, start y=238, cols=52, rows=7 -->
  <script>/* placeholder */</script>
  </g>

  <!-- Contribution graph — hand-crafted rows showing a dense pattern -->
  <!-- Row 1 (Mon) -->
  <g fill-opacity="0.9">
    <!-- sparse early, building up to dense in the middle, huge spike at end -->
    <rect x="80"  y="238" width="11" height="11" rx="2" fill="#161022"/>
    <rect x="93"  y="238" width="11" height="11" rx="2" fill="#161022"/>
    <rect x="106" y="238" width="11" height="11" rx="2" fill="url(#ghGreen3)"/>
    <rect x="119" y="238" width="11" height="11" rx="2" fill="#161022"/>
    <rect x="132" y="238" width="11" height="11" rx="2" fill="url(#ghGreen1)"/>
    <rect x="145" y="238" width="11" height="11" rx="2" fill="url(#ghGreen2)"/>
    <rect x="158" y="238" width="11" height="11" rx="2" fill="#161022"/>
    <rect x="171" y="238" width="11" height="11" rx="2" fill="url(#ghGreen1)"/>
    <rect x="184" y="238" width="11" height="11" rx="2" fill="url(#ghGreen1)"/>
    <rect x="197" y="238" width="11" height="11" rx="2" fill="url(#ghGreen2)"/>
    <rect x="210" y="238" width="11" height="11" rx="2" fill="url(#ghGreen3)"/>
    <rect x="223" y="238" width="11" height="11" rx="2" fill="url(#ghGreen2)"/>
    <rect x="236" y="238" width="11" height="11" rx="2" fill="url(#ghGreen1)"/>
    <rect x="249" y="238" width="11" height="11" rx="2" fill="url(#ghGreen3)"/>
    <rect x="262" y="238" width="11" height="11" rx="2" fill="url(#ghGreen2)"/>
    <rect x="275" y="238" width="11" height="11" rx="2" fill="url(#ghGreen1)"/>
    <rect x="288" y="238" width="11" height="11" rx="2" fill="url(#ghGreen1)"/>
    <rect x="301" y="238" width="11" height="11" rx="2" fill="url(#ghGreen2)"/>
    <rect x="314" y="238" width="11" height="11" rx="2" fill="url(#ghGreen3)"/>
    <rect x="327" y="238" width="11" height="11" rx="2" fill="url(#ghGreen2)"/>
    <rect x="340" y="238" width="11" height="11" rx="2" fill="url(#ghGreen1)"/>
    <rect x="353" y="238" width="11" height="11" rx="2" fill="url(#ghGreen3)"/>
    <rect x="366" y="238" width="11" height="11" rx="2" fill="url(#ghGreen2)"/>
    <rect x="379" y="238" width="11" height="11" rx="2" fill="url(#ghGreen3)"/>
    <rect x="392" y="238" width="11" height="11" rx="2" fill="url(#ghGreen1)"/>
    <rect x="405" y="238" width="11" height="11" rx="2" fill="url(#ghGreen2)"/>
    <rect x="418" y="238" width="11" height="11" rx="2" fill="url(#ghGreen3)"/>
    <rect x="431" y="238" width="11" height="11" rx="2" fill="url(#ghGreen1)"/>
    <rect x="444" y="238" width="11" height="11" rx="2" fill="url(#ghGreen1)"/>
    <rect x="457" y="238" width="11" height="11" rx="2" fill="url(#ghGreen2)"/>
    <rect x="470" y="238" width="11" height="11" rx="2" fill="url(#ghGreen3)"/>
    <rect x="483" y="238" width="11" height="11" rx="2" fill="url(#ghGreen2)"/>
    <rect x="496" y="238" width="11" height="11" rx="2" fill="url(#ghGreen1)"/>
    <rect x="509" y="238" width="11" height="11" rx="2" fill="url(#ghGreen1)"/>
    <rect x="522" y="238" width="11" height="11" rx="2" fill="url(#ghGreen3)"/>
    <rect x="535" y="238" width="11" height="11" rx="2" fill="url(#ghGreen2)"/>
    <rect x="548" y="238" width="11" height="11" rx="2" fill="url(#ghGreen3)"/>
    <rect x="561" y="238" width="11" height="11" rx="2" fill="url(#ghGreen1)"/>
    <rect x="574" y="238" width="11" height="11" rx="2" fill="url(#ghGreen2)"/>
    <rect x="587" y="238" width="11" height="11" rx="2" fill="url(#ghGreen3)"/>
    <rect x="600" y="238" width="11" height="11" rx="2" fill="url(#ghGreen1)"/>
    <rect x="613" y="238" width="11" height="11" rx="2" fill="url(#ghGreen3)"/>
    <rect x="626" y="238" width="11" height="11" rx="2" fill="url(#ghGreen2)"/>
    <rect x="639" y="238" width="11" height="11" rx="2" fill="url(#ghGreen3)"/>
    <rect x="652" y="238" width="11" height="11" rx="2" fill="url(#ghGreen1)"/>
    <rect x="665" y="238" width="11" height="11" rx="2" fill="url(#ghGreen3)"/>
    <rect x="678" y="238" width="11" height="11" rx="2" fill="url(#ghGreen2)"/>
    <rect x="691" y="238" width="11" height="11" rx="2" fill="url(#ghGreen3)"/>
    <rect x="704" y="238" width="11" height="11" rx="2" fill="url(#ghGreen1)"/>
    <rect x="717" y="238" width="11" height="11" rx="2" fill="url(#ghGreen3)"/>
    <rect x="730" y="238" width="11" height="11" rx="2" fill="url(#ghGreen1)"/>
  </g>
  <!-- Rows 2-7: similar dense pattern (abbreviated for brevity) -->
  <g fill-opacity="0.9">
    <rect x="80" y="251" width="11" height="11" rx="2" fill="url(#ghGreen2)"/>
    <rect x="93" y="251" width="11" height="11" rx="2" fill="url(#ghGreen1)"/>
    <rect x="106" y="251" width="11" height="11" rx="2" fill="url(#ghGreen3)"/>
    <rect x="119" y="251" width="11" height="11" rx="2" fill="url(#ghGreen2)"/>
    <rect x="132" y="251" width="11" height="11" rx="2" fill="url(#ghGreen3)"/>
    <rect x="145" y="251" width="11" height="11" rx="2" fill="url(#ghGreen1)"/>
    <rect x="158" y="251" width="11" height="11" rx="2" fill="url(#ghGreen2)"/>
    <rect x="171" y="251" width="11" height="11" rx="2" fill="url(#ghGreen3)"/>
    <rect x="184" y="251" width="11" height="11" rx="2" fill="url(#ghGreen1)"/>
    <rect x="197" y="251" width="11" height="11" rx="2" fill="url(#ghGreen3)"/>
    <rect x="210" y="251" width="11" height="11" rx="2" fill="url(#ghGreen2)"/>
    <rect x="223" y="251" width="11" height="11" rx="2" fill="url(#ghGreen1)"/>
    <rect x="236" y="251" width="11" height="11" rx="2" fill="url(#ghGreen2)"/>
    <rect x="249" y="251" width="11" height="11" rx="2" fill="url(#ghGreen3)"/>
    <rect x="262" y="251" width="11" height="11" rx="2" fill="url(#ghGreen1)"/>
    <rect x="275" y="251" width="11" height="11" rx="2" fill="url(#ghGreen2)"/>
    <rect x="288" y="251" width="11" height="11" rx="2" fill="url(#ghGreen3)"/>
    <rect x="301" y="251" width="11" height="11" rx="2" fill="url(#ghGreen1)"/>
    <rect x="314" y="251" width="11" height="11" rx="2" fill="url(#ghGreen2)"/>
    <rect x="327" y="251" width="11" height="11" rx="2" fill="url(#ghGreen3)"/>
    <rect x="340" y="251" width="11" height="11" rx="2" fill="url(#ghGreen1)"/>
    <rect x="353" y="251" width="11" height="11" rx="2" fill="url(#ghGreen1)"/>
    <rect x="366" y="251" width="11" height="11" rx="2" fill="url(#ghGreen3)"/>
    <rect x="379" y="251" width="11" height="11" rx="2" fill="url(#ghGreen2)"/>
    <rect x="392" y="251" width="11" height="11" rx="2" fill="url(#ghGreen3)"/>
    <rect x="405" y="251" width="11" height="11" rx="2" fill="url(#ghGreen1)"/>
    <rect x="418" y="251" width="11" height="11" rx="2" fill="url(#ghGreen2)"/>
    <rect x="431" y="251" width="11" height="11" rx="2" fill="url(#ghGreen3)"/>
    <rect x="444" y="251" width="11" height="11" rx="2" fill="url(#ghGreen1)"/>
    <rect x="457" y="251" width="11" height="11" rx="2" fill="url(#ghGreen3)"/>
    <rect x="470" y="251" width="11" height="11" rx="2" fill="url(#ghGreen2)"/>
    <rect x="483" y="251" width="11" height="11" rx="2" fill="url(#ghGreen3)"/>
    <rect x="496" y="251" width="11" height="11" rx="2" fill="url(#ghGreen1)"/>
    <rect x="509" y="251" width="11" height="11" rx="2" fill="url(#ghGreen3)"/>
    <rect x="522" y="251" width="11" height="11" rx="2" fill="url(#ghGreen2)"/>
    <rect x="535" y="251" width="11" height="11" rx="2" fill="url(#ghGreen3)"/>
    <rect x="548" y="251" width="11" height="11" rx="2" fill="url(#ghGreen2)"/>
    <rect x="561" y="251" width="11" height="11" rx="2" fill="url(#ghGreen3)"/>
    <rect x="574" y="251" width="11" height="11" rx="2" fill="url(#ghGreen1)"/>
    <rect x="587" y="251" width="11" height="11" rx="2" fill="url(#ghGreen3)"/>
    <rect x="600" y="251" width="11" height="11" rx="2" fill="url(#ghGreen2)"/>
    <rect x="613" y="251" width="11" height="11" rx="2" fill="url(#ghGreen3)"/>
    <rect x="626" y="251" width="11" height="11" rx="2" fill="url(#ghGreen1)"/>
    <rect x="639" y="251" width="11" height="11" rx="2" fill="url(#ghGreen3)"/>
    <rect x="652" y="251" width="11" height="11" rx="2" fill="url(#ghGreen1)"/>
    <rect x="665" y="251" width="11" height="11" rx="2" fill="url(#ghGreen2)"/>
    <rect x="678" y="251" width="11" height="11" rx="2" fill="url(#ghGreen3)"/>
    <rect x="691" y="251" width="11" height="11" rx="2" fill="url(#ghGreen1)"/>
    <rect x="704" y="251" width="11" height="11" rx="2" fill="url(#ghGreen2)"/>
    <rect x="717" y="251" width="11" height="11" rx="2" fill="url(#ghGreen3)"/>
    <rect x="730" y="251" width="11" height="11" rx="2" fill="url(#ghGreen2)"/>
  </g>
  <!-- Row 3 -->
  <g fill-opacity="0.9">
  <rect x="80" y="264" width="11" height="11" rx="2" fill="#161022"/>
  <rect x="93" y="264" width="11" height="11" rx="2" fill="url(#ghGreen3)"/>
  <rect x="106" y="264" width="11" height="11" rx="2" fill="url(#ghGreen2)"/>
  <rect x="119" y="264" width="11" height="11" rx="2" fill="url(#ghGreen3)"/>
  <rect x="132" y="264" width="11" height="11" rx="2" fill="url(#ghGreen1)"/>
  <rect x="145" y="264" width="11" height="11" rx="2" fill="url(#ghGreen3)"/>
  <rect x="158" y="264" width="11" height="11" rx="2" fill="url(#ghGreen1)"/>
  <rect x="171" y="264" width="11" height="11" rx="2" fill="url(#ghGreen2)"/>
  <rect x="184" y="264" width="11" height="11" rx="2" fill="url(#ghGreen3)"/>
  <rect x="197" y="264" width="11" height="11" rx="2" fill="url(#ghGreen1)"/>
  <rect x="210" y="264" width="11" height="11" rx="2" fill="url(#ghGreen3)"/>
  <rect x="223" y="264" width="11" height="11" rx="2" fill="url(#ghGreen2)"/>
  <rect x="236" y="264" width="11" height="11" rx="2" fill="url(#ghGreen1)"/>
  <rect x="249" y="264" width="11" height="11" rx="2" fill="url(#ghGreen3)"/>
  <rect x="262" y="264" width="11" height="11" rx="2" fill="url(#ghGreen1)"/>
  <rect x="275" y="264" width="11" height="11" rx="2" fill="url(#ghGreen2)"/>
  <rect x="288" y="264" width="11" height="11" rx="2" fill="url(#ghGreen1)"/>
  <rect x="301" y="264" width="11" height="11" rx="2" fill="url(#ghGreen3)"/>
  <rect x="314" y="264" width="11" height="11" rx="2" fill="url(#ghGreen2)"/>
  <rect x="327" y="264" width="11" height="11" rx="2" fill="url(#ghGreen3)"/>
  <rect x="340" y="264" width="11" height="11" rx="2" fill="url(#ghGreen1)"/>
  <rect x="353" y="264" width="11" height="11" rx="2" fill="url(#ghGreen3)"/>
  <rect x="366" y="264" width="11" height="11" rx="2" fill="url(#ghGreen2)"/>
  <rect x="379" y="264" width="11" height="11" rx="2" fill="url(#ghGreen1)"/>
  <rect x="392" y="264" width="11" height="11" rx="2" fill="url(#ghGreen3)"/>
  <rect x="405" y="264" width="11" height="11" rx="2" fill="url(#ghGreen2)"/>
  <rect x="418" y="264" width="11" height="11" rx="2" fill="url(#ghGreen3)"/>
  <rect x="431" y="264" width="11" height="11" rx="2" fill="url(#ghGreen1)"/>
  <rect x="444" y="264" width="11" height="11" rx="2" fill="url(#ghGreen2)"/>
  <rect x="457" y="264" width="11" height="11" rx="2" fill="url(#ghGreen3)"/>
  <rect x="470" y="264" width="11" height="11" rx="2" fill="url(#ghGreen1)"/>
  <rect x="483" y="264" width="11" height="11" rx="2" fill="url(#ghGreen2)"/>
  <rect x="496" y="264" width="11" height="11" rx="2" fill="url(#ghGreen3)"/>
  <rect x="509" y="264" width="11" height="11" rx="2" fill="url(#ghGreen1)"/>
  <rect x="522" y="264" width="11" height="11" rx="2" fill="url(#ghGreen2)"/>
  <rect x="535" y="264" width="11" height="11" rx="2" fill="url(#ghGreen3)"/>
  <rect x="548" y="264" width="11" height="11" rx="2" fill="url(#ghGreen1)"/>
  <rect x="561" y="264" width="11" height="11" rx="2" fill="url(#ghGreen2)"/>
  <rect x="574" y="264" width="11" height="11" rx="2" fill="url(#ghGreen3)"/>
  <rect x="587" y="264" width="11" height="11" rx="2" fill="url(#ghGreen1)"/>
  <rect x="600" y="264" width="11" height="11" rx="2" fill="url(#ghGreen3)"/>
  <rect x="613" y="264" width="11" height="11" rx="2" fill="url(#ghGreen2)"/>
  <rect x="626" y="264" width="11" height="11" rx="2" fill="url(#ghGreen3)"/>
  <rect x="639" y="264" width="11" height="11" rx="2" fill="url(#ghGreen1)"/>
  <rect x="652" y="264" width="11" height="11" rx="2" fill="url(#ghGreen2)"/>
  <rect x="665" y="264" width="11" height="11" rx="2" fill="url(#ghGreen3)"/>
  <rect x="678" y="264" width="11" height="11" rx="2" fill="url(#ghGreen2)"/>
  <rect x="691" y="264" width="11" height="11" rx="2" fill="url(#ghGreen3)"/>
  <rect x="704" y="264" width="11" height="11" rx="2" fill="url(#ghGreen1)"/>
  <rect x="717" y="264" width="11" height="11" rx="2" fill="url(#ghGreen2)"/>
  <rect x="730" y="264" width="11" height="11" rx="2" fill="url(#ghGreen3)"/>
  </g>
  <!-- Rows 4-7 simplified -->
  <rect x="80" y="277" width="661" height="11" rx="2" fill="url(#ghGreen1)" fill-opacity="0.15"/>
  <rect x="80" y="277" width="400" height="11" rx="2" fill="url(#ghGreen2)" fill-opacity="0.5"/>
  <rect x="80" y="290" width="661" height="11" rx="2" fill="url(#ghGreen3)" fill-opacity="0.25"/>
  <rect x="80" y="303" width="661" height="11" rx="2" fill="url(#ghGreen2)" fill-opacity="0.2"/>
  <rect x="80" y="316" width="661" height="11" rx="2" fill="url(#ghGreen1)" fill-opacity="0.15"/>
  <!-- But overlay individual cells on rows 4-7 for realism -->
  <g fill-opacity="0.9">
  <rect x="80"  y="277" width="11" height="11" rx="2" fill="url(#ghGreen3)"/>
  <rect x="145" y="277" width="11" height="11" rx="2" fill="url(#ghGreen2)"/>
  <rect x="236" y="277" width="11" height="11" rx="2" fill="url(#ghGreen3)"/>
  <rect x="340" y="277" width="11" height="11" rx="2" fill="url(#ghGreen1)"/>
  <rect x="470" y="277" width="11" height="11" rx="2" fill="url(#ghGreen3)"/>
  <rect x="600" y="277" width="11" height="11" rx="2" fill="url(#ghGreen2)"/>
  <rect x="717" y="277" width="11" height="11" rx="2" fill="url(#ghGreen3)"/>
  <rect x="93"  y="290" width="11" height="11" rx="2" fill="url(#ghGreen2)"/>
  <rect x="184" y="290" width="11" height="11" rx="2" fill="url(#ghGreen3)"/>
  <rect x="314" y="290" width="11" height="11" rx="2" fill="url(#ghGreen1)"/>
  <rect x="457" y="290" width="11" height="11" rx="2" fill="url(#ghGreen2)"/>
  <rect x="574" y="290" width="11" height="11" rx="2" fill="url(#ghGreen3)"/>
  <rect x="704" y="290" width="11" height="11" rx="2" fill="url(#ghGreen1)"/>
  </g>

  <!-- Python script section -->
  <rect x="80" y="348" width="300" height="160" rx="8" fill="#12101e" stroke="#a855f7" stroke-width="0.5" stroke-opacity="0.25"/>
  <text x="96" y="372" fill="#a855f7" font-size="9" font-family="sans-serif" opacity="0.6" letter-spacing="1">GENERATOR SCRIPT</text>
  <text x="96" y="392" fill="#8be9fd" font-size="9" font-family="monospace">import</text>
  <text x="134" y="392" fill="#e8d5b7" font-size="9" font-family="monospace" opacity="0.7"> subprocess, datetime</text>
  <text x="96" y="408" fill="#c8b89a" font-size="9" font-family="monospace" opacity="0.4"># backdate commits</text>
  <text x="96" y="424" fill="#6fcf97" font-size="9" font-family="monospace">def</text>
  <text x="116" y="424" fill="#f5a623" font-size="9" font-family="monospace"> generate_activity</text>
  <text x="96" y="440" fill="#e8d5b7" font-size="9" font-family="monospace" opacity="0.6">  for day in date_range:</text>
  <text x="96" y="456" fill="#e8d5b7" font-size="9" font-family="monospace" opacity="0.6">    commit(day, n=random)</text>
  <text x="96" y="472" fill="#6fcf97" font-size="9" font-family="monospace">  push(force=True)</text>
  <text x="96" y="492" fill="#39d353" font-size="9" font-family="monospace">✓ 365 days seeded!</text>

  <!-- Click button -->
  <rect x="410" y="380" width="300" height="60" rx="8" fill="#a855f7" fill-opacity="0.15" stroke="#a855f7" stroke-width="1" stroke-opacity="0.5"/>
  <text x="560" y="406" fill="#d8b4fe" font-size="14" font-family="sans-serif" text-anchor="middle" opacity="0.9">🖱 Click to Generate</text>
  <text x="560" y="424" fill="#a855f7" font-size="9" font-family="sans-serif" text-anchor="middle" opacity="0.6">Instant green graph ✨</text>

  <!-- Legend -->
  <g transform="translate(410,460)">
    <text x="0" y="16" fill="#c8b89a" font-size="8" font-family="sans-serif" opacity="0.4">Less</text>
    <rect x="34" y="4" width="12" height="12" rx="2" fill="#161022"/>
    <rect x="50" y="4" width="12" height="12" rx="2" fill="url(#ghGreen3)"/>
    <rect x="66" y="4" width="12" height="12" rx="2" fill="url(#ghGreen2)"/>
    <rect x="82" y="4" width="12" height="12" rx="2" fill="url(#ghGreen1)"/>
    <text x="100" y="16" fill="#c8b89a" font-size="8" font-family="sans-serif" opacity="0.4">More</text>
  </g>

  <text x="400" y="545" fill="#d8b4fe" font-size="12" font-family="Georgia, serif" text-anchor="middle" opacity="0.7">Green graph. Happy developer.</text>
  <text x="400" y="565" fill="#a855f7" font-size="9" font-family="sans-serif" text-anchor="middle" opacity="0.35" letter-spacing="2">PYTHON · GIT · AUTOMATION</text>
</svg>
